<svg xmlns="http://www.w3.org/2000/svg" viewBox="0 0 1024 1024" style="--cw-ink:#FAFAFA;--cw-bg:#09090B"><g transform="translate(-52 14)"><path d="M330 780 Q300 780 300 750 V340 Q300 300 320 270 L336 250 Q350 236 364 252 L424 330 H600 L660 252 Q674 236 688 250 L704 270 Q724 300 724 340 V750 Q724 780 694 780 Z" fill="var(--cw-ink)"/><circle cx="430" cy="440" r="34" fill="var(--cw-bg)"/><circle cx="594" cy="440" r="34" fill="var(--cw-bg)"/><path d="M724 700 Q840 710 852 610 Q854 556 806 556" fill="none" stroke="var(--cw-ink)" stroke-width="52" stroke-linecap="round" stroke-linejoin="round"/><rect x="336" y="630" width="352" height="70" rx="12" fill="var(--cw-bg)"/><path d="M370 665 L410 665 M390 645 L390 685 M440 665 L640 665" fill="none" stroke="var(--cw-ink)" stroke-width="18" stroke-linecap="round"/></g></svg>
